<svg xmlns="http://www.w3.org/2000/svg" viewBox="0 0 100 100" role="img" aria-label="luisblanco.dev — the system around the node">
  <defs>
    <radialGradient id="lbHalo" cx="50%" cy="50%" r="50%">
      <stop offset="0%" stop-color="#F0C674" stop-opacity="0.32"/><stop offset="32%" stop-color="#D4A24C" stop-opacity="0.10"/>
      <stop offset="68%" stop-color="#D4A24C" stop-opacity="0.02"/><stop offset="100%" stop-color="#D4A24C" stop-opacity="0"/>
    </radialGradient>
    <radialGradient id="lbCore" cx="50%" cy="50%" r="50%">
      <stop offset="0%" stop-color="#FCECC2" stop-opacity="1"/><stop offset="30%" stop-color="#F4CE7E" stop-opacity="0.78"/>
      <stop offset="68%" stop-color="#D4A24C" stop-opacity="0.14"/><stop offset="100%" stop-color="#D4A24C" stop-opacity="0"/>
    </radialGradient>
    <filter id="lbGlow" x="-60%" y="-60%" width="220%" height="220%"><feGaussianBlur stdDeviation="0.85"/></filter>
  </defs>
  <!-- the named system, as gold ink-filaments spiralling from a luminous node -->
  <circle cx="50" cy="50" r="49" fill="url(#lbHalo)"/>
  <g fill="none" stroke-linecap="round">
    <g stroke="#D4A24C" opacity="0.30" stroke-width="2.6" filter="url(#lbGlow)">
      <path d="M50,50 Q58.5,34 50,17"/><path d="M50,50 Q67.7,53 81.4,39.8"/><path d="M50,50 Q52.5,68 69.4,76.7"/><path d="M50,50 Q33.8,58 30.6,76.7"/><path d="M50,50 Q37.5,37 18.6,39.8"/>
    </g>
    <g stroke="#EBBB63" opacity="0.92" stroke-width="1.05">
      <path d="M50,50 Q58.5,34 50,17"/><path d="M50,50 Q67.7,53 81.4,39.8"/><path d="M50,50 Q52.5,68 69.4,76.7"/><path d="M50,50 Q33.8,58 30.6,76.7"/><path d="M50,50 Q37.5,37 18.6,39.8"/>
    </g>
  </g>
  <g fill="#F4CE7E"><circle cx="50" cy="17" r="2"/><circle cx="81.4" cy="39.8" r="2"/><circle cx="69.4" cy="76.7" r="2"/><circle cx="30.6" cy="76.7" r="2"/><circle cx="18.6" cy="39.8" r="2"/></g>
  <circle cx="50" cy="50" r="23" fill="url(#lbCore)"/>
  <circle cx="50" cy="50" r="2.6" fill="#FFF4D6"/>
</svg>
